<svg width="19" height="24" viewBox="0 0 19 24" fill="none" xmlns="http://www.w3.org/2000/svg">
<g filter="url(#filter0_d_32_23)">
<mask id="path-1-outside-1_32_23" maskUnits="userSpaceOnUse" x="3" y="2" width="13" height="18" fill="black">
<rect fill="white" x="3" y="2" width="13" height="18"/>
<path fill-rule="evenodd" clip-rule="evenodd" d="M11 10L14 7V5H5V7L8 10V11L5 14V17H14V14L11 11V10ZM4 3H15V4H4V3ZM4 18H15V19H4V18ZM6 15H7V16H6V15ZM8 15H9V16H8V15ZM7 14H8V15H7V14ZM9 14H10V15H9V14ZM11 14H12V15H11V14ZM10 13H11V14H10V13ZM8 13H9V14H8V13ZM9 12H10V13H9V12ZM9 10H10V11H9V10ZM10 8H11V9H10V8ZM9 7H10V8H9V7ZM7 7H8V8H7V7ZM11 7H12V8H11V7ZM8 8H9V9H8V8ZM10 15H11V16H10V15ZM12 15H13V16H12V15Z"/>
</mask>
<path fill-rule="evenodd" clip-rule="evenodd" d="M11 10L14 7V5H5V7L8 10V11L5 14V17H14V14L11 11V10ZM4 3H15V4H4V3ZM4 18H15V19H4V18ZM6 15H7V16H6V15ZM8 15H9V16H8V15ZM7 14H8V15H7V14ZM9 14H10V15H9V14ZM11 14H12V15H11V14ZM10 13H11V14H10V13ZM8 13H9V14H8V13ZM9 12H10V13H9V12ZM9 10H10V11H9V10ZM10 8H11V9H10V8ZM9 7H10V8H9V7ZM7 7H8V8H7V7ZM11 7H12V8H11V7ZM8 8H9V9H8V8ZM10 15H11V16H10V15ZM12 15H13V16H12V15Z" fill="white"/>
<path d="M14 7L14.7071 7.70711L15 7.41421V7H14ZM14 5H15V4H14V5ZM5 5V4H4V5H5ZM5 7H4V7.41421L4.29289 7.70711L5 7ZM8 10H9V9.58579L8.70711 9.29289L8 10ZM8 11L8.70711 11.7071L9 11.4142V11H8ZM5 14L4.29289 13.2929L4 13.5858V14H5ZM5 17H4V18H5V17ZM14 17V18H15V17H14ZM14 14H15V13.5858L14.7071 13.2929L14 14ZM11 11H10V11.4142L10.2929 11.7071L11 11ZM15 3H16V2H15V3ZM15 4V5H16V4H15ZM4 4H3V5H4V4ZM15 18H16V17H15V18ZM15 19V20H16V19H15ZM4 19H3V20H4V19ZM7 15H8V14H7V15ZM7 16V17H8V16H7ZM6 16H5V17H6V16ZM9 15H10V14H9V15ZM9 16V17H10V16H9ZM8 16H7V17H8V16ZM8 14H9V13H8V14ZM8 15V16H9V15H8ZM7 15H6V16H7V15ZM10 14H11V13H10V14ZM10 15V16H11V15H10ZM9 15H8V16H9V15ZM12 14H13V13H12V14ZM12 15V16H13V15H12ZM11 15H10V16H11V15ZM11 13H12V12H11V13ZM11 14V15H12V14H11ZM10 14H9V15H10V14ZM9 13H10V12H9V13ZM9 14V15H10V14H9ZM8 14H7V15H8V14ZM10 12H11V11H10V12ZM10 13V14H11V13H10ZM9 13H8V14H9V13ZM10 10H11V9H10V10ZM10 11V12H11V11H10ZM9 11H8V12H9V11ZM11 8H12V7H11V8ZM11 9V10H12V9H11ZM10 9H9V10H10V9ZM10 7H11V6H10V7ZM10 8V9H11V8H10ZM9 8H8V9H9V8ZM8 7H9V6H8V7ZM8 8V9H9V8H8ZM7 8H6V9H7V8ZM12 7H13V6H12V7ZM12 8V9H13V8H12ZM11 8H10V9H11V8ZM9 8H10V7H9V8ZM9 9V10H10V9H9ZM8 9H7V10H8V9ZM11 15H12V14H11V15ZM11 16V17H12V16H11ZM10 16H9V17H10V16ZM13 15H14V14H13V15ZM13 16V17H14V16H13ZM12 16H11V17H12V16ZM11.7071 10.7071L14.7071 7.70711L13.2929 6.29289L10.2929 9.29289L11.7071 10.7071ZM15 7V5H13V7H15ZM14 4H5V6H14V4ZM4 5V7H6V5H4ZM4.29289 7.70711L7.29289 10.7071L8.70711 9.29289L5.70711 6.29289L4.29289 7.70711ZM7 10V11H9V10H7ZM7.29289 10.2929L4.29289 13.2929L5.70711 14.7071L8.70711 11.7071L7.29289 10.2929ZM4 14V17H6V14H4ZM5 18H14V16H5V18ZM15 17V14H13V17H15ZM14.7071 13.2929L11.7071 10.2929L10.2929 11.7071L13.2929 14.7071L14.7071 13.2929ZM12 11V10H10V11H12ZM4 4H15V2H4V4ZM14 3V4H16V3H14ZM15 3H4V5H15V3ZM5 4V3H3V4H5ZM4 19H15V17H4V19ZM14 18V19H16V18H14ZM15 18H4V20H15V18ZM5 19V18H3V19H5ZM6 16H7V14H6V16ZM6 15V16H8V15H6ZM7 15H6V17H7V15ZM7 16V15H5V16H7ZM8 16H9V14H8V16ZM8 15V16H10V15H8ZM9 15H8V17H9V15ZM9 16V15H7V16H9ZM7 15H8V13H7V15ZM7 14V15H9V14H7ZM8 14H7V16H8V14ZM8 15V14H6V15H8ZM9 15H10V13H9V15ZM9 14V15H11V14H9ZM10 14H9V16H10V14ZM10 15V14H8V15H10ZM11 15H12V13H11V15ZM11 14V15H13V14H11ZM12 14H11V16H12V14ZM12 15V14H10V15H12ZM10 14H11V12H10V14ZM10 13V14H12V13H10ZM11 13H10V15H11V13ZM11 14V13H9V14H11ZM8 14H9V12H8V14ZM8 13V14H10V13H8ZM9 13H8V15H9V13ZM9 14V13H7V14H9ZM9 13H10V11H9V13ZM9 12V13H11V12H9ZM10 12H9V14H10V12ZM10 13V12H8V13H10ZM9 11H10V9H9V11ZM9 10V11H11V10H9ZM10 10H9V12H10V10ZM10 11V10H8V11H10ZM10 9H11V7H10V9ZM10 8V9H12V8H10ZM11 8H10V10H11V8ZM11 9V8H9V9H11ZM9 8H10V6H9V8ZM9 7V8H11V7H9ZM10 7H9V9H10V7ZM10 8V7H8V8H10ZM7 8H8V6H7V8ZM7 7V8H9V7H7ZM8 7H7V9H8V7ZM8 8V7H6V8H8ZM11 8H12V6H11V8ZM11 7V8H13V7H11ZM12 7H11V9H12V7ZM12 8V7H10V8H12ZM8 9H9V7H8V9ZM8 8V9H10V8H8ZM9 8H8V10H9V8ZM9 9V8H7V9H9ZM10 16H11V14H10V16ZM10 15V16H12V15H10ZM11 15H10V17H11V15ZM11 16V15H9V16H11ZM12 16H13V14H12V16ZM12 15V16H14V15H12ZM13 15H12V17H13V15ZM13 16V15H11V16H13Z" fill="black" fill-opacity="0.8" mask="url(#path-1-outside-1_32_23)"/>
</g>
<defs>
<filter id="filter0_d_32_23" x="0" y="0" width="19" height="24" filterUnits="userSpaceOnUse" color-interpolation-filters="sRGB">
<feFlood flood-opacity="0" result="BackgroundImageFix"/>
<feColorMatrix in="SourceAlpha" type="matrix" values="0 0 0 0 0 0 0 0 0 0 0 0 0 0 0 0 0 0 127 0" result="hardAlpha"/>
<feOffset dy="1"/>
<feGaussianBlur stdDeviation="1.5"/>
<feColorMatrix type="matrix" values="0 0 0 0 0 0 0 0 0 0 0 0 0 0 0 0 0 0 0.2 0"/>
<feBlend mode="normal" in2="BackgroundImageFix" result="effect1_dropShadow_32_23"/>
<feBlend mode="normal" in="SourceGraphic" in2="effect1_dropShadow_32_23" result="shape"/>
</filter>
</defs>
</svg>
